<svg width="14" height="10" viewBox="0 0 14 10" fill="none" xmlns="http://www.w3.org/2000/svg">
<path d="M10 5C10.92 5 11.66 4.25333 11.66 3.33333C11.66 2.41333 10.92 1.66666 10 1.66666C9.08001 1.66666 8.33334 2.41333 8.33334 3.33333C8.33334 4.25333 9.08001 5 10 5ZM5.00001 4.33333C6.10668 4.33333 6.99334 3.44 6.99334 2.33333C6.99334 1.22666 6.10668 0.333328 5.00001 0.333328C3.89334 0.333328 3.00001 1.22666 3.00001 2.33333C3.00001 3.44 3.89334 4.33333 5.00001 4.33333ZM10 6.33333C8.78001 6.33333 6.33334 6.94666 6.33334 8.16666V9.66666H13.6667V8.16666C13.6667 6.94666 11.22 6.33333 10 6.33333ZM5.00001 5.66666C3.44668 5.66666 0.333344 6.44666 0.333344 8V9.66666H5.00001V8.16666C5.00001 7.6 5.22001 6.60666 6.58001 5.85333C6.00001 5.73333 5.44001 5.66666 5.00001 5.66666Z" fill="#939393"/>
</svg>
