<svg width="16" height="16" viewBox="0 0 16 16" fill="none" xmlns="http://www.w3.org/2000/svg">
<path d="M8 4C6.89533 4 6 3.10467 6 2C6 0.895333 6.89533 0 8 0C9.10467 0 10 0.895333 10 2C10 3.10467 9.10467 4 8 4Z" fill="white"/>
<path d="M2.66667 12.6667V7.33333C2.66667 6.57999 2.92733 5.89199 3.35067 5.33333H1.33333C0.596667 5.33333 0 5.92999 0 6.66666V10.6667H1.33333V14C1.33333 14.368 1.632 14.6667 2 14.6667H3.33333C3.70133 14.6667 4 14.368 4 14V12.6667H2.66667Z" fill="white"/>
<path d="M9.33333 16H6.66667C6.29867 16 6 15.7013 6 15.3333V11.3333H4V7.33333C4 6.22866 4.89533 5.33333 6 5.33333H10C11.1047 5.33333 12 6.22866 12 7.33333V11.3333H10V15.3333C10 15.7013 9.70133 16 9.33333 16Z" fill="white"/>
<path d="M2.66668 4.66667C1.93001 4.66667 1.33334 4.07 1.33334 3.33333C1.33334 2.59667 1.93001 2 2.66668 2C3.40334 2 4.00001 2.59667 4.00001 3.33333C4.00001 4.07 3.40334 4.66667 2.66668 4.66667Z" fill="white"/>
<path d="M13.3333 12.6667V7.33333C13.3333 6.57999 13.0727 5.89199 12.6493 5.33333H14.6667C15.4033 5.33333 16 5.92999 16 6.66666V10.6667H14.6667V14C14.6667 14.368 14.368 14.6667 14 14.6667H12.6667C12.2987 14.6667 12 14.368 12 14V12.6667H13.3333Z" fill="white"/>
<path d="M13.3333 4.66667C14.07 4.66667 14.6667 4.07 14.6667 3.33333C14.6667 2.59667 14.07 2 13.3333 2C12.5967 2 12 2.59667 12 3.33333C12 4.07 12.5967 4.66667 13.3333 4.66667Z" fill="white"/>
</svg>
