<svg width="7" height="12" viewBox="0 0 7 12" fill="none" xmlns="http://www.w3.org/2000/svg">
<path d="M3.86665 5.26667C2.35332 4.87333 1.86665 4.46667 1.86665 3.83333C1.86665 3.10667 2.53998 2.6 3.66665 2.6C4.85332 2.6 5.29332 3.16667 5.33332 4H6.80665C6.75998 2.85333 6.05998 1.8 4.66665 1.46V0H2.66665V1.44C1.37332 1.72 0.333318 2.56 0.333318 3.84667C0.333318 5.38667 1.60665 6.15333 3.46665 6.6C5.13332 7 5.46665 7.58667 5.46665 8.20667C5.46665 8.66667 5.13998 9.4 3.66665 9.4C2.29332 9.4 1.75332 8.78667 1.67998 8H0.213318C0.293318 9.46 1.38665 10.28 2.66665 10.5533V12H4.66665V10.5667C5.96665 10.32 6.99998 9.56667 6.99998 8.2C6.99998 6.30667 5.37998 5.66 3.86665 5.26667Z" fill="#939393"/>
</svg>
