<svg width="20" height="20" viewBox="0 0 24 24" fill="none" xmlns="http://www.w3.org/2000/svg">
  <path fillRule="evenodd" clipRule="evenodd" d="M12 2C6.47715 2 2 6.47715 2 12C2 17.5229 6.47715 22 12 22C17.5229 22 22 17.5229 22 12C22 6.47715 17.5229 2 12 2ZM12 20C7.58172 20 4 16.4183 4 12C4 7.58172 7.58172 4 12 4C16.4183 4 20 7.58172 20 12C20 16.4183 16.4183 20 12 20ZM10.92 13.39L14.7 8.39H14.69C15.0269 7.94817 15.6582 7.86311 16.1 8.2C16.5418 8.53689 16.6269 9.16817 16.29 9.61L11.72 15.61C11.5312 15.8552 11.2395 15.9993 10.93 16C10.6222 16.0017 10.3308 15.8615 10.14 15.62L7.71 12.51C7.37035 12.0737 7.4487 11.4447 7.885 11.105C8.32131 10.7653 8.95035 10.8437 9.29 11.28L10.92 13.39Z" fill="#18A957" />
</svg>
